<svg width="120" height="120" viewBox="0 0 120 120" fill="none" xmlns="http://www.w3.org/2000/svg">
<path d="M67.5 110C58.5 110 50.8333 106.833 44.5 100.5C38.1667 94.1667 35 86.5 35 77.5V74.625C27.8333 73.4584 21.875 70.1034 17.125 64.56C12.375 59.0167 10 52.4967 10 45V20C10 18.5834 10.48 17.3967 11.44 16.44C12.4 15.4834 13.5867 15.0034 15 15H25C25 13.5834 25.48 12.3967 26.44 11.44C27.4 10.4834 28.5867 10.0034 30 10C31.4133 9.99668 32.6017 10.4767 33.565 11.44C34.5283 12.4034 35.0067 13.59 35 15V25C35 26.4167 34.52 27.605 33.56 28.565C32.6 29.525 31.4133 30.0033 30 30C28.5867 29.9967 27.4 29.5167 26.44 28.56C25.48 27.6033 25 26.4167 25 25H20V45C20 50.5 21.9583 55.2084 25.875 59.125C29.7917 63.0417 34.5 65 40 65C45.5 65 50.2083 63.0417 54.125 59.125C58.0417 55.2084 60 50.5 60 45V25H55C55 26.4167 54.52 27.605 53.56 28.565C52.6 29.525 51.4133 30.0033 50 30C48.5867 29.9967 47.4 29.5167 46.44 28.56C45.48 27.6033 45 26.4167 45 25V15C45 13.5834 45.48 12.3967 46.44 11.44C47.4 10.4834 48.5867 10.0034 50 10C51.4133 9.99668 52.6017 10.4767 53.565 11.44C54.5283 12.4034 55.0067 13.59 55 15H65C66.4167 15 67.605 15.48 68.565 16.44C69.525 17.4 70.0033 18.5867 70 20V45C70 52.5 67.625 59.0217 62.875 64.565C58.125 70.1084 52.1667 73.4617 45 74.625V77.5C45 83.75 47.1883 89.0634 51.565 93.44C55.9417 97.8167 61.2533 100.003 67.5 100C73.7467 99.9967 79.06 97.81 83.44 93.44C87.82 89.07 90.0067 83.7567 90 77.5V69.125C87.0833 68.0417 84.6883 66.2284 82.815 63.685C80.9417 61.1417 80.0033 58.2467 80 55C80 50.8334 81.4583 47.2917 84.375 44.375C87.2917 41.4583 90.8333 40 95 40C99.1667 40 102.708 41.4583 105.625 44.375C108.542 47.2917 110 50.8334 110 55C110 58.25 109.063 61.1467 107.19 63.69C105.317 66.2334 102.92 68.045 100 69.125V77.5C100 86.5 96.8333 94.1667 90.5 100.5C84.1667 106.833 76.5 110 67.5 110Z" fill="#68788E"/>
</svg>
