<svg width="120" height="120" viewBox="0 0 120 120" fill="none" xmlns="http://www.w3.org/2000/svg">
<path d="M10 85V40C10 37.25 10.98 34.8967 12.94 32.94C14.9 30.9833 17.2533 30.0033 20 30H100C102.75 30 105.105 30.98 107.065 32.94C109.025 34.9 110.003 37.2533 110 40V85C110 86.4167 109.52 87.605 108.56 88.565C107.6 89.525 106.413 90.0033 105 90C103.587 89.9967 102.4 89.5167 101.44 88.56C100.48 87.6033 100 86.4167 100 85V80H80V85C80 86.4167 79.52 87.605 78.56 88.565C77.6 89.525 76.4133 90.0033 75 90C73.5867 89.9967 72.4 89.5167 71.44 88.56C70.48 87.6033 70 86.4167 70 85V40H20V85C20 86.4167 19.52 87.605 18.56 88.565C17.6 89.525 16.4133 90.0033 15 90C13.5867 89.9967 12.4 89.5167 11.44 88.56C10.48 87.6033 10 86.4167 10 85ZM80 50H100V40H80V50ZM80 70H100V60H80V70Z" fill="#68788E"/>
</svg>
