<svg width="120" height="120" viewBox="0 0 120 120" fill="none" xmlns="http://www.w3.org/2000/svg">
<path d="M55.0001 10C64.7135 9.9985 74.0956 13.5315 81.3953 19.9397C88.695 26.3478 93.4135 35.1932 94.6701 44.825L105.92 62.52C106.66 63.685 106.51 65.42 104.795 66.16L95.0001 70.35V85C95.0001 87.6522 93.9466 90.1957 92.0712 92.0711C90.1958 93.9464 87.6523 95 85.0001 95H75.0051L75.0001 110H30.0001V91.53C30.0001 85.63 27.8201 80.045 23.7751 75.005C19.0636 69.1223 16.11 62.0282 15.2546 54.54C14.3992 47.0518 15.6767 39.4743 18.9401 32.6806C22.2034 25.8868 27.3198 20.1533 33.6997 16.1406C40.0795 12.1279 47.4633 9.99924 55.0001 10ZM55.0001 20C49.348 19.9998 43.8108 21.5962 39.0264 24.6055C34.242 27.6147 30.405 31.9144 27.9575 37.0091C25.51 42.1037 24.5515 47.7862 25.1924 53.4018C25.8333 59.0175 28.0476 64.3378 31.5801 68.75C37.0501 75.57 40.0001 83.335 40.0001 91.53V100H65.0001L65.0101 85H85.0001V63.76L92.7501 60.44L85.0351 48.315L84.7501 46.105C83.8046 38.8841 80.2648 32.2537 74.7908 27.4504C69.3169 22.6472 62.2827 19.999 55.0001 20ZM55.0001 35C56.3262 35 57.598 35.5268 58.5357 36.4645C59.4733 37.4022 60.0001 38.6739 60.0001 40V45H65.0001C66.3262 45 67.598 45.5268 68.5357 46.4645C69.4733 47.4022 70.0001 48.6739 70.0001 50C70.0001 51.3261 69.4733 52.5979 68.5357 53.5355C67.598 54.4732 66.3262 55 65.0001 55H60.0001V60C60.0001 61.3261 59.4733 62.5979 58.5357 63.5355C57.598 64.4732 56.3262 65 55.0001 65C53.674 65 52.4023 64.4732 51.4646 63.5355C50.5269 62.5979 50.0001 61.3261 50.0001 60V54.995L45.0001 55C43.674 55 42.4023 54.4732 41.4646 53.5355C40.5269 52.5979 40.0001 51.3261 40.0001 50C40.0001 48.6739 40.5269 47.4022 41.4646 46.4645C42.4023 45.5268 43.674 45 45.0001 45L50.0001 44.995V40C50.0001 38.6739 50.5269 37.4022 51.4646 36.4645C52.4023 35.5268 53.674 35 55.0001 35Z" fill="#68788E"/>
</svg>
